<svg width="40" height="38" viewBox="0 0 40 38" fill="none" xmlns="http://www.w3.org/2000/svg">
<path d="M34 15V6C34 3.79086 32.2091 2 30 2H6C3.79086 2 2 3.79086 2 6V21.6522C2 23.8613 3.79086 25.6522 6 25.6522H9.13043V34L17.4783 25.6522H18M28.3261 30.7826L33.5435 36V30.7826H34C36.2091 30.7826 38 28.9918 38 26.7826V20C38 17.7909 36.2091 16 34 16H22C19.7909 16 18 17.7909 18 20V26.7826C18 28.9918 19.7909 30.7826 22 30.7826H28.3261Z" stroke="white" stroke-width="3" stroke-linecap="round" stroke-linejoin="round"/>
</svg>
