<svg width="32" height="40" viewBox="0 0 32 40" fill="none" xmlns="http://www.w3.org/2000/svg">
<path d="M20 36C20 37.1 19.5997 38.0496 18.7998 38.8496C18.0331 39.6163 17.1 40 16 40C14.9 40 13.9504 39.6163 13.1504 38.8496C12.3837 38.0496 12 37.1 12 36H20ZM16 0C16.8333 0 17.5329 0.300392 18.0996 0.900391C18.6996 1.46706 19 2.16667 19 3V4.40039C21.6666 5.06707 23.8334 6.48375 25.5 8.65039C27.1665 10.7837 28 13.2334 28 16V30H32V34H0V30H4V16C4 13.2334 4.83346 10.7837 6.5 8.65039C8.16665 6.48375 10.3334 5.06707 13 4.40039V3C13 2.16686 13.2832 1.46699 13.8496 0.900391C14.4496 0.300392 15.1667 0 16 0ZM16 8C13.8 8 11.9163 8.78294 10.3496 10.3496C8.78294 11.9163 8 13.8 8 16V30H24V16C24 13.8 23.2171 11.9163 21.6504 10.3496C20.0837 8.78294 18.2 8 16 8Z" fill="black"/>
<path d="M20 36C20 37.1 19.5997 38.0496 18.7998 38.8496C18.0331 39.6163 17.1 40 16 40C14.9 40 13.9504 39.6163 13.1504 38.8496C12.3837 38.0496 12 37.1 12 36H20ZM16 0C16.8333 0 17.5329 0.300392 18.0996 0.900391C18.6996 1.46706 19 2.16667 19 3V4.40039C21.6666 5.06707 23.8334 6.48375 25.5 8.65039C27.1665 10.7837 28 13.2334 28 16V30H32V34H0V30H4V16C4 13.2334 4.83346 10.7837 6.5 8.65039C8.16665 6.48375 10.3334 5.06707 13 4.40039V3C13 2.16686 13.2832 1.46699 13.8496 0.900391C14.4496 0.300392 15.1667 0 16 0ZM16 8C13.8 8 11.9163 8.78294 10.3496 10.3496C8.78294 11.9163 8 13.8 8 16V30H24V16C24 13.8 23.2171 11.9163 21.6504 10.3496C20.0837 8.78294 18.2 8 16 8Z" stroke="white"/>
</svg>
