<svg width="48" height="48" viewBox="0 0 48 48" fill="none" xmlns="http://www.w3.org/2000/svg">
<path d="M28 40C28 41.1 27.5997 42.0496 26.7998 42.8496C26.0331 43.6163 25.1 44 24 44C22.9 44 21.9504 43.6163 21.1504 42.8496C20.3837 42.0496 20 41.1 20 40H28ZM24 4C24.8333 4 25.5329 4.30039 26.0996 4.90039C26.6996 5.46706 27 6.16667 27 7V8.40039C29.6666 9.06707 31.8334 10.4837 33.5 12.6504C35.1665 14.7837 36 17.2334 36 20V34H40V38H8V34H12V20C12 17.2334 12.8335 14.7837 14.5 12.6504C16.1666 10.4837 18.3334 9.06707 21 8.40039V7C21 6.16686 21.2832 5.46699 21.8496 4.90039C22.4496 4.30039 23.1667 4 24 4ZM24 12C21.8 12 19.9163 12.7829 18.3496 14.3496C16.7829 15.9163 16 17.8 16 20V34H32V20C32 17.8 31.2171 15.9163 29.6504 14.3496C28.0837 12.7829 26.2 12 24 12Z" fill="white"/>
<path d="M28 40C28 41.1 27.5997 42.0496 26.7998 42.8496C26.0331 43.6163 25.1 44 24 44C22.9 44 21.9504 43.6163 21.1504 42.8496C20.3837 42.0496 20 41.1 20 40H28ZM24 4C24.8333 4 25.5329 4.30039 26.0996 4.90039C26.6996 5.46706 27 6.16667 27 7V8.40039C29.6666 9.06707 31.8334 10.4837 33.5 12.6504C35.1665 14.7837 36 17.2334 36 20V34H40V38H8V34H12V20C12 17.2334 12.8335 14.7837 14.5 12.6504C16.1666 10.4837 18.3334 9.06707 21 8.40039V7C21 6.16686 21.2832 5.46699 21.8496 4.90039C22.4496 4.30039 23.1667 4 24 4ZM24 12C21.8 12 19.9163 12.7829 18.3496 14.3496C16.7829 15.9163 16 17.8 16 20V34H32V20C32 17.8 31.2171 15.9163 29.6504 14.3496C28.0837 12.7829 26.2 12 24 12Z" stroke="white"/>
</svg>
